<mxfile host="Electron" modified="2023-09-04T04:15:39.989Z" agent="Mozilla/5.0 (Windows NT 10.0; Win64; x64) AppleWebKit/537.36 (KHTML, like Gecko) draw.io/21.6.8 Chrome/114.0.5735.289 Electron/25.5.0 Safari/537.36" etag="EYukBgFOzSkZaMHsrLLu" version="21.6.8" type="device">
  <diagram id="6jfvZ688tm8pOZHgqSFM" name="Page-1">
    <mxGraphModel dx="1434" dy="836" grid="1" gridSize="10" guides="1" tooltips="1" connect="1" arrows="1" fold="1" page="1" pageScale="1" pageWidth="827" pageHeight="1169" math="0" shadow="0">
      <root>
        <mxCell id="0" />
        <mxCell id="1" parent="0" />
        <mxCell id="kNc4F-3AqUrd7lAFkTx2-3" value="BotSharp&lt;br&gt;&lt;span style=&quot;font-weight: normal;&quot;&gt;Agent&lt;br&gt;Conversation&lt;br&gt;Routing&lt;/span&gt;" style="rounded=1;whiteSpace=wrap;html=1;fillColor=#ffcc99;strokeColor=#36393d;fontStyle=1;sketch=1;curveFitting=1;jiggle=2;" parent="1" vertex="1">
          <mxGeometry x="345.71" y="340" width="214.29" height="60" as="geometry" />
        </mxCell>
        <mxCell id="9DShFkwYbzccSmdIPQ0x-7" value="&lt;b&gt;Phone&amp;nbsp;Voice&lt;/b&gt;" style="rounded=1;whiteSpace=wrap;html=1;fillColor=#f9f7ed;strokeColor=#36393d;sketch=1;curveFitting=1;jiggle=2;" vertex="1" parent="1">
          <mxGeometry x="240" y="240" width="90" height="40" as="geometry" />
        </mxCell>
        <mxCell id="9DShFkwYbzccSmdIPQ0x-8" value="&lt;b&gt;Web Chat&lt;/b&gt;" style="rounded=1;whiteSpace=wrap;html=1;fillColor=#f9f7ed;strokeColor=#36393d;sketch=1;curveFitting=1;jiggle=2;" vertex="1" parent="1">
          <mxGeometry x="360" y="240" width="90" height="40" as="geometry" />
        </mxCell>
        <mxCell id="9DShFkwYbzccSmdIPQ0x-9" value="&lt;b&gt;Message&lt;/b&gt;" style="rounded=1;whiteSpace=wrap;html=1;fillColor=#f9f7ed;strokeColor=#36393d;sketch=1;curveFitting=1;jiggle=2;" vertex="1" parent="1">
          <mxGeometry x="474" y="240" width="90" height="40" as="geometry" />
        </mxCell>
        <mxCell id="9DShFkwYbzccSmdIPQ0x-10" value="&lt;b&gt;Open API&lt;/b&gt;" style="rounded=1;whiteSpace=wrap;html=1;fillColor=#f9f7ed;strokeColor=#36393d;sketch=1;curveFitting=1;jiggle=2;" vertex="1" parent="1">
          <mxGeometry x="590" y="240" width="90" height="40" as="geometry" />
        </mxCell>
        <mxCell id="9DShFkwYbzccSmdIPQ0x-11" value="&lt;h1&gt;BotSharp AI Orchestration&lt;/h1&gt;&lt;p&gt;&lt;br&gt;&lt;/p&gt;" style="text;html=1;strokeColor=none;fillColor=none;spacing=5;spacingTop=-20;whiteSpace=wrap;overflow=hidden;rounded=0;" vertex="1" parent="1">
          <mxGeometry x="50" y="50" width="310" height="120" as="geometry" />
        </mxCell>
        <mxCell id="9DShFkwYbzccSmdIPQ0x-12" value="&lt;b&gt;Knowlege Base&lt;/b&gt;" style="shape=cylinder3;whiteSpace=wrap;html=1;boundedLbl=1;backgroundOutline=1;size=15;fillColor=#eeeeee;strokeColor=#36393d;sketch=1;curveFitting=1;jiggle=2;" vertex="1" parent="1">
          <mxGeometry x="270" y="670" width="60" height="80" as="geometry" />
        </mxCell>
        <mxCell id="9DShFkwYbzccSmdIPQ0x-13" value="&lt;b&gt;Knowledge&lt;/b&gt;&lt;br&gt;RAG" style="rounded=1;whiteSpace=wrap;html=1;fillColor=#cce5ff;strokeColor=#36393d;sketch=1;curveFitting=1;jiggle=2;" vertex="1" parent="1">
          <mxGeometry x="240" y="565" width="120" height="40" as="geometry" />
        </mxCell>
        <mxCell id="9DShFkwYbzccSmdIPQ0x-14" value="" style="shape=curlyBracket;whiteSpace=wrap;html=1;rounded=1;labelPosition=left;verticalLabelPosition=middle;align=right;verticalAlign=middle;sketch=1;curveFitting=1;jiggle=2;" vertex="1" parent="1">
          <mxGeometry x="150" y="260" width="20" height="450" as="geometry" />
        </mxCell>
        <mxCell id="9DShFkwYbzccSmdIPQ0x-15" value="&lt;b&gt;&lt;br&gt;&lt;br&gt;Agent&lt;/b&gt;" style="shape=actor;whiteSpace=wrap;html=1;fillColor=#ffff88;strokeColor=#36393d;sketch=1;curveFitting=1;jiggle=2;" vertex="1" parent="1">
          <mxGeometry x="345.71" y="450" width="42.86" height="50" as="geometry" />
        </mxCell>
        <mxCell id="9DShFkwYbzccSmdIPQ0x-16" value="&lt;b&gt;&lt;br&gt;&lt;br&gt;Agent&lt;/b&gt;" style="shape=actor;whiteSpace=wrap;html=1;fillColor=#ffff88;strokeColor=#36393d;sketch=1;curveFitting=1;jiggle=2;" vertex="1" parent="1">
          <mxGeometry x="431.43" y="450" width="42.86" height="50" as="geometry" />
        </mxCell>
        <mxCell id="9DShFkwYbzccSmdIPQ0x-17" value="&lt;b&gt;&lt;br&gt;&lt;br&gt;Agent&lt;/b&gt;" style="shape=actor;whiteSpace=wrap;html=1;fillColor=#ffff88;strokeColor=#36393d;sketch=1;curveFitting=1;jiggle=2;" vertex="1" parent="1">
          <mxGeometry x="517.14" y="450" width="42.86" height="50" as="geometry" />
        </mxCell>
        <mxCell id="9DShFkwYbzccSmdIPQ0x-18" value="&lt;b&gt;Meta Messenger&lt;/b&gt;" style="rounded=1;whiteSpace=wrap;html=1;fillColor=#cce5ff;strokeColor=#36393d;sketch=1;curveFitting=1;jiggle=2;" vertex="1" parent="1">
          <mxGeometry x="381.43" y="565" width="120" height="40" as="geometry" />
        </mxCell>
        <mxCell id="9DShFkwYbzccSmdIPQ0x-19" value="&lt;b&gt;Data Storage&lt;/b&gt;" style="rounded=1;whiteSpace=wrap;html=1;fillColor=#cce5ff;strokeColor=#36393d;sketch=1;curveFitting=1;jiggle=2;" vertex="1" parent="1">
          <mxGeometry x="520" y="565" width="120" height="40" as="geometry" />
        </mxCell>
        <mxCell id="9DShFkwYbzccSmdIPQ0x-20" value="&lt;b&gt;Storage&lt;/b&gt;" style="shape=datastore;whiteSpace=wrap;html=1;fillColor=#eeeeee;strokeColor=#36393d;sketch=1;curveFitting=1;jiggle=2;" vertex="1" parent="1">
          <mxGeometry x="550" y="680" width="60" height="60" as="geometry" />
        </mxCell>
        <mxCell id="9DShFkwYbzccSmdIPQ0x-22" value="&lt;b&gt;UI/ UX&lt;/b&gt;" style="text;html=1;strokeColor=none;fillColor=none;align=center;verticalAlign=middle;whiteSpace=wrap;rounded=0;sketch=1;curveFitting=1;jiggle=2;" vertex="1" parent="1">
          <mxGeometry x="60" y="250" width="60" height="30" as="geometry" />
        </mxCell>
        <mxCell id="9DShFkwYbzccSmdIPQ0x-25" value="&lt;b&gt;Kernel&lt;/b&gt;" style="text;html=1;strokeColor=none;fillColor=none;align=center;verticalAlign=middle;whiteSpace=wrap;rounded=0;sketch=1;curveFitting=1;jiggle=2;" vertex="1" parent="1">
          <mxGeometry x="60" y="355" width="60" height="30" as="geometry" />
        </mxCell>
        <mxCell id="9DShFkwYbzccSmdIPQ0x-26" value="&lt;b&gt;Agent&lt;/b&gt;" style="text;html=1;strokeColor=none;fillColor=none;align=center;verticalAlign=middle;whiteSpace=wrap;rounded=0;sketch=1;curveFitting=1;jiggle=2;" vertex="1" parent="1">
          <mxGeometry x="60" y="460" width="60" height="30" as="geometry" />
        </mxCell>
        <mxCell id="9DShFkwYbzccSmdIPQ0x-27" value="&lt;b&gt;Plugin&lt;/b&gt;" style="text;html=1;strokeColor=none;fillColor=none;align=center;verticalAlign=middle;whiteSpace=wrap;rounded=0;sketch=1;curveFitting=1;jiggle=2;" vertex="1" parent="1">
          <mxGeometry x="60" y="565" width="60" height="30" as="geometry" />
        </mxCell>
        <mxCell id="9DShFkwYbzccSmdIPQ0x-28" value="&lt;b&gt;Data Storage&lt;/b&gt;" style="text;html=1;strokeColor=none;fillColor=none;align=center;verticalAlign=middle;whiteSpace=wrap;rounded=0;sketch=1;curveFitting=1;jiggle=2;" vertex="1" parent="1">
          <mxGeometry x="60" y="680" width="60" height="30" as="geometry" />
        </mxCell>
        <mxCell id="9DShFkwYbzccSmdIPQ0x-29" value="&lt;b&gt;File Storage&amp;nbsp;&amp;nbsp;&lt;/b&gt;" style="strokeWidth=2;html=1;shape=mxgraph.flowchart.multi-document;whiteSpace=wrap;sketch=1;curveFitting=1;jiggle=2;" vertex="1" parent="1">
          <mxGeometry x="397" y="680" width="88" height="60" as="geometry" />
        </mxCell>
      </root>
    </mxGraphModel>
  </diagram>
</mxfile>
